<svg xmlns="http://www.w3.org/2000/svg" xmlns:xlink="http://www.w3.org/1999/xlink" viewBox="0 0 200 125.56"><defs><style>.cls-1{isolation:isolate;}.cls-2{fill:aqua;}.cls-2,.cls-3,.cls-4,.cls-5,.cls-6,.cls-7,.cls-8,.cls-9{fill-rule:evenodd;}.cls-3{fill:#0071bc;}.cls-4{fill:url(#鍊踑臇_蜸馯鳺艜_202);}.cls-5{fill:#a4a0c2;}.cls-6{fill:#7b5b7b;}.cls-7{fill:#5a475c;}.cls-8{opacity:0.5;mix-blend-mode:multiply;fill:url(#鍊踑臇_蜸馯鳺艜_149);}.cls-9{fill:#8b6f8b;}</style><linearGradient id="鍊踑臇_蜸馯鳺艜_202" x1="99.74" y1="92.36" x2="99.74" y2="20.4" gradientUnits="userSpaceOnUse"><stop offset="0" stop-color="#48365e"/><stop offset="1" stop-color="#685763"/></linearGradient><linearGradient id="鍊踑臇_蜸馯鳺艜_149" x1="12.82" y1="88.32" x2="180.67" y2="88.32" gradientUnits="userSpaceOnUse"><stop offset="0" stop-color="#c77cbd"/><stop offset="1" stop-color="#974577"/></linearGradient></defs><g class="cls-1"><g id="圖層_2" data-name="圖層 2"><g id="圖層_1-2" data-name="圖層 1"><path class="cls-2" d="M13.23,108.83S4,102.4,1.35,81.74H199.89s.24,12.19-18.8,32.59c0,0-24.51,13-86.58,11C31,123.29,13.23,108.83,13.23,108.83Z"/><path class="cls-3" d="M1.35,80.17C-.9,73,37,59.76,97.33,59.76c57.54,0,100.1,13.45,102.56,20.41s-37.37,23.3-102.56,23.3S4,88.5,1.35,80.17Z"/><path class="cls-4" d="M12.82,75.63S-4.09,43.86.93,20.4H199.47s.11,38.69-18.8,60.73c0,0-24.51,13-86.57,11C30.54,90.08,12.82,75.63,12.82,75.63Z"/><path class="cls-5" d="M.93,20.4C-1.31,13.22,36.56,0,96.91,0,154.45,0,197,13.45,199.47,20.4S162.1,43.71,96.91,43.71,3.53,28.74.93,20.4Z"/><path class="cls-6" d="M173.89,21.85a1.4,1.4,0,0,1-.54,1.29C167.12,29.35,111.16,39.9,74.78,37c-.25,0-.47-.05-.69-.05-17.28-1.45-29.6-3.84-37.86-6.53S23.85,24.81,22.72,22.3a3,3,0,0,1-.3-1.75c.74-5.15,63.75-10.48,94.78-5.65,13,2,16.84,4.49,14.77,6.73-1.58,1.78-6.83,3.4-14.15,4.59A163.75,163.75,0,0,1,98.15,28c-6.44.22-11.93.2-16.57,0C70,27.52,63.66,26.09,61,25.33c-1-.3-1.51-.49-1.51-.49s4.83-7.25,12.6-4.83,9.68,6.06,9.68,6.06,31.75,1.08,38.65-3.23a3,3,0,0,0,1.09-1c3.33-5.44-90.14-8.15-90.39,1.56a2.28,2.28,0,0,0,.37,1.28c5,9.05,64.46,15.6,103.11,4,6.06-1.8,9.29-3.79,10.15-5.84,3.6-8.38-32.95-17.4-78-16.93h-.59a298.85,298.85,0,0,0-52.8,5.22L22.42,8.3S43.52,2.21,90.28,4,172.44,16,173.89,21.85Z"/><path class="cls-7" d="M81.58,28C70,27.52,63.66,26.09,61,25.33c2-2,5.89-4.71,11.09-3.08C78.5,24.25,80.94,27.06,81.58,28Z"/><path class="cls-7" d="M121.54,24.12c.27-.44-.12-.89-1.09-1.28a3,3,0,0,0,1.09-1c3.33-5.44-90.14-8.15-90.39,1.56a2.28,2.28,0,0,0,.37,1.28,1.45,1.45,0,0,0-.37,1c0,1.68,1.8,3.28,5.08,4.73-8.16-2.66-12.38-5.57-13.51-8.08,4.68-5,64.51-9.81,94.48-5.13,8.7,1.36,13.31,2.93,14.77,4.46-1.58,1.78-6.83,3.4-14.15,4.59C119.69,25.65,121,25,121.54,24.12Z"/><path class="cls-7" d="M173.35,23.14C167.12,29.35,111.16,39.9,74.78,37c-.25,0-.47-.05-.69-.05,19.55.94,42.35-.49,60.54-5.94,8.28-2.49,11.29-5.3,10.15-8.08,3.6-8.38-32.95-17.4-78-16.93,7-.13,14.82-.08,23.54.24C134.58,7.85,168.62,17.15,173.35,23.14Z"/><path class="cls-8" d="M12.82,75.63s16.12,20.73,68,24.58c74,5.5,99.83-19.08,99.83-19.08S89.72,103.47,12.82,75.63Z"/><path class="cls-9" d="M23,34.4s22,7.17,44.85,7.05,57.81,1.15,57.81,1.15-27.29,9-51.33,7.53S23,34.4,23,34.4Z"/><path class="cls-9" d="M167.78,36.17s15.65-10,20.49-11.73a13.52,13.52,0,0,1,9.09,0S190.43,38,167.78,36.17Z"/><path class="cls-9" d="M1.61,21.85s2-.6,5.24,1.81S21.33,33.82,21.33,33.82s-13,3.65-16.91,0C2.79,32.28,1.61,21.85,1.61,21.85Z"/><path class="cls-6" d="M121.54,21.85v2.27a8.27,8.27,0,0,1-2.77,1.78l-.44-2A11.08,11.08,0,0,0,121.54,21.85Z"/><path class="cls-6" d="M145,21.68l-.16,3.3-2.68,2.84V25.59A4.63,4.63,0,0,0,145,21.68Z"/><path class="cls-6" d="M31.18,26.08V22.83s-.34,1.82,2.23,3.75l.3,2.48S31.18,27.72,31.18,26.08Z"/></g></g></g></svg>