<svg xmlns="http://www.w3.org/2000/svg" xmlns:xlink="http://www.w3.org/1999/xlink" viewBox="0 0 67.14 71.66"><defs><style>.cls-1{isolation:isolate;}.cls-2,.cls-3,.cls-4,.cls-5{fill-rule:evenodd;}.cls-2{fill:url(#鍊踑臇_蜸馯鳺艜_437);}.cls-3{fill:url(#_1);}.cls-4{opacity:0.36;mix-blend-mode:multiply;fill:url(#鍊踑臇_蜸馯鳺艜_322);}.cls-5{fill:url(#鍊踑臇_蜸馯鳺艜_449);}</style><linearGradient id="鍊踑臇_蜸馯鳺艜_437" x1="43.24" y1="93.02" x2="43.24" y2="20.22" gradientTransform="translate(-7.47 -22.75) rotate(2.24)" gradientUnits="userSpaceOnUse"><stop offset="0" stop-color="#523184"/><stop offset="1" stop-color="#ff5c7a"/></linearGradient><linearGradient id="_1" y1="61.19" x2="50.91" y2="61.19" gradientUnits="userSpaceOnUse"><stop offset="0" stop-color="#3b1074"/><stop offset="1" stop-color="#612f59"/></linearGradient><linearGradient id="鍊踑臇_蜸馯鳺艜_322" y1="35.74" x2="23.27" y2="35.74" gradientUnits="userSpaceOnUse"><stop offset="0" stop-color="#977cff"/><stop offset="1" stop-color="#4513b6"/></linearGradient><linearGradient id="鍊踑臇_蜸馯鳺艜_449" x1="56.29" y1="65.11" x2="56.29" gradientUnits="userSpaceOnUse"><stop offset="0" stop-color="#a73d7e"/><stop offset="1" stop-color="#ff837a"/></linearGradient></defs><g class="cls-1"><g id="圖層_2" data-name="圖層 2"><g id="圖層_1-2" data-name="圖層 1"><path class="cls-2" d="M0,57.38,1.29,24.32s14.82-6.49,22-8.86l.28-7L57,0,67.14,11.43,59,34.52l-8,30.59L26.38,71.66,17.9,62.49Z"/><polygon class="cls-3" points="0 56.02 18.53 50.73 20.51 60.44 45.44 53.38 50.91 65.11 26.38 71.66 17.9 62.49 0 57.38 0 56.02"/><polygon class="cls-4" points="23.27 15.46 18.53 50.73 0 56.02 1.29 24.32 23.27 15.46"/><polygon class="cls-5" points="45.44 53.38 45.44 23.08 56.99 0 67.14 11.43 57.27 40.92 50.91 65.11 45.44 53.38"/></g></g></g></svg>