<svg xmlns="http://www.w3.org/2000/svg" xmlns:xlink="http://www.w3.org/1999/xlink" viewBox="0 0 62.06 75.93"><defs><style>.cls-1,.cls-2,.cls-3,.cls-4{fill-rule:evenodd;}.cls-1{fill:url(#鍊踑臇_蜸馯鳺艜_437);}.cls-2{fill:url(#_1);}.cls-3{fill:url(#_1-2);}.cls-4{fill:url(#鍊踑臇_蜸馯鳺艜_449);}</style><linearGradient id="鍊踑臇_蜸馯鳺艜_437" x1="31.03" y1="75.93" x2="31.03" gradientUnits="userSpaceOnUse"><stop offset="0" stop-color="#523184"/><stop offset="1" stop-color="#ff5c7a"/></linearGradient><linearGradient id="_1" x1="6.18" y1="62.62" x2="51.18" y2="62.62" gradientUnits="userSpaceOnUse"><stop offset="0" stop-color="#3b1074"/><stop offset="1" stop-color="#612f59"/></linearGradient><linearGradient id="_1-2" x1="0" y1="40.64" x2="41.47" y2="40.64" xlink:href="#_1"/><linearGradient id="鍊踑臇_蜸馯鳺艜_449" x1="51.29" y1="53.13" x2="51.29" y2="-2.75" gradientTransform="translate(-0.28 2.84) rotate(0.29)" gradientUnits="userSpaceOnUse"><stop offset="0" stop-color="#a73d7e"/><stop offset="1" stop-color="#ff837a"/></linearGradient></defs><g id="圖層_2" data-name="圖層 2"><g id="圖層_1-2" data-name="圖層 1"><path class="cls-1" d="M6.18,62.4,18.09,75.93a95.17,95.17,0,0,0,33.09-19.7l5-19.71,5.88-7L51.47.34S27.06-3.77,3.82,16.52L0,41.81l10.88,7.36Z"/><path class="cls-2" d="M6.18,62.4S22.5,51.52,41.47,49.31l9.71,6.92a102.49,102.49,0,0,1-33.09,19.7Z"/><path class="cls-3" d="M10.88,49.17,41.47,38V32.11S24,32.55,0,41.81Z"/><polygon class="cls-4" points="51.61 0.35 41.57 9.14 39.69 32.05 41.42 37.92 45.63 19.13 49.25 16.44 41.36 49.27 51.03 56.23 56.13 36.55 62.05 29.62 51.61 0.35"/></g></g></svg>